<svg xmlns="http://www.w3.org/2000/svg" xmlns:xlink="http://www.w3.org/1999/xlink" version="1.1" x="0px" y="0px" viewBox="0 0 100 100" style="enable-background:new 0 0 100 100;"><path id='bottle-path' d="M38.0986328,90h24.1347656c1.9267578,0,3.5371094-1.5068359,3.6679688-3.4726562l1.2255859-50.2592773  c0.1611328-2.4389648-1.2568359-4.6845703-3.4726562-5.5644531l-8.2451172-3.8603516v-7.9989624  c1.0888672-0.2781982,1.8994141-1.2590942,1.8994141-2.4331665v-3.909668c0-1.3896484-1.1298828-2.5200195-2.5195312-2.5200195  h-9.2470703c-1.3896484,0-2.5195312,1.1303711-2.5195312,2.5200195v3.909668c0,1.1744385,0.8110352,2.1556396,1.9003906,2.4334717  V26.84375l-8.1923828,3.8364258c-2.2705078,0.9042969-3.6875,3.1499023-3.5273438,5.5463867l1.2285156,50.3427734  C34.5605469,88.4931641,36.1708984,90,38.0986328,90z M46.9228516,18.9306641h6.4863281v3.6015625h-6.4863281V18.9306641z   M45.0224609,12.5014648c0-0.2866211,0.2333984-0.5200195,0.5195312-0.5200195h9.2470703  c0.2861328,0,0.5195312,0.2333984,0.5195312,0.5200195v3.909668c0,0.2866211-0.2333984,0.5195312-0.5195312,0.5195312h-9.2470703  c-0.2861328,0-0.5195312-0.2329102-0.5195312-0.5195312V12.5014648z M37.5244141,32.5151367l8.8222656-4.1298828  c0.3515625-0.1645508,0.5761719-0.5175781,0.5761719-0.9057617v-2.9472656h6.4863281v2.9472656  c0,0.3881836,0.2246094,0.7412109,0.5761719,0.9057617l8.875,4.1533203c1.4619141,0.581543,2.3740234,2.0273438,2.2685547,3.6391602  l-1.2255859,50.2587891C63.8447266,87.3129883,63.1113281,88,62.2333984,88H38.0986328  c-0.8789062,0-1.6123047-0.6870117-1.6689453-1.5214844l-1.2285156-50.3427734  C35.0966797,34.565918,36.0087891,33.1206055,37.5244141,32.5151367z"/></svg>